solid OpenSCAD_Model
  facet normal -2.22045e-16 -2.22045e-16 -1
    outer loop
      vertex -1.66533e-15 -5 4.44089e-15
      vertex -1.66533e-15 -1.66533e-15 3.33067e-15
      vertex 15 -5 1.11022e-15
    endloop
  endfacet
  facet normal -2.22045e-16 -2.22045e-16 -1
    outer loop
      vertex 15 -5 1.11022e-15
      vertex -1.66533e-15 -1.66533e-15 3.33067e-15
      vertex 15 -1.66533e-15 0
    endloop
  endfacet
  facet normal -0.707107 1.57009e-16 0.707107
    outer loop
      vertex -1.66533e-15 -1.66533e-15 3.33067e-15
      vertex -1.66533e-15 -5 4.44089e-15
      vertex 15 -10 15
    endloop
  endfacet
  facet normal -0.707107 1.57009e-16 0.707107
    outer loop
      vertex 15 0 15
      vertex 7.5 0 7.5
      vertex -1.66533e-15 -1.66533e-15 3.33067e-15
    endloop
  endfacet
  facet normal -0.707107 1.57009e-16 0.707107
    outer loop
      vertex 15 0 15
      vertex -1.66533e-15 -1.66533e-15 3.33067e-15
      vertex 15 -10 15
    endloop
  endfacet
  facet normal -0.707107 1.57009e-16 0.707107
    outer loop
      vertex 15 1.66533e-15 15
      vertex 15 0 15
      vertex 15 -10 15
    endloop
  endfacet
  facet normal -7.02167e-17 -0.948683 -0.316228
    outer loop
      vertex 15 -10 15
      vertex -1.66533e-15 -5 4.44089e-15
      vertex 15 -5 1.11022e-15
    endloop
  endfacet
  facet normal 1 -4.93038e-32 -2.22045e-16
    outer loop
      vertex 15 -10 15
      vertex 15 -5 1.11022e-15
      vertex 15 -1.66533e-15 0
    endloop
  endfacet
  facet normal 1 -4.93038e-32 -2.22045e-16
    outer loop
      vertex 15 -5.54668e-31 7.5
      vertex 15 -10 15
      vertex 15 -1.66533e-15 0
    endloop
  endfacet
  facet normal 1 -4.93038e-32 -2.22045e-16
    outer loop
      vertex 15 -1.84889e-31 7.5
      vertex 15 -5.54668e-31 7.5
      vertex 15 -1.66533e-15 0
    endloop
  endfacet
  facet normal 1 -4.93038e-32 -2.22045e-16
    outer loop
      vertex 15 -5.54668e-31 7.5
      vertex 15 1.66533e-15 15
      vertex 15 -10 15
    endloop
  endfacet
  facet normal 0 1 -2.22045e-16
    outer loop
      vertex -1.66533e-15 -1.66533e-15 3.33067e-15
      vertex 7.5 0 7.5
      vertex 15 -1.66533e-15 0
    endloop
  endfacet
  facet normal 0 1 -2.22045e-16
    outer loop
      vertex 15 -1.66533e-15 0
      vertex 7.5 0 7.5
      vertex 15 0 7.5
    endloop
  endfacet
  facet normal 0 1 -2.22045e-16
    outer loop
      vertex 15 -1.66533e-15 0
      vertex 15 0 7.5
      vertex 15 -1.84889e-31 7.5
    endloop
  endfacet
  facet normal 0 -1 0
    outer loop
      vertex 0 0 15
      vertex 0 0 0
      vertex 15 0 0
    endloop
  endfacet
  facet normal 0 -1 0
    outer loop
      vertex 7.5 0 7.5
      vertex 0 0 15
      vertex 15 0 0
    endloop
  endfacet
  facet normal 0 -1 0
    outer loop
      vertex 15 0 7.5
      vertex 7.5 0 7.5
      vertex 15 0 0
    endloop
  endfacet
  facet normal 0 -1 0
    outer loop
      vertex 7.5 0 7.5
      vertex 15 0 15
      vertex 0 0 15
    endloop
  endfacet
  facet normal -4.93038e-32 -1 2.22045e-16
    outer loop
      vertex 15 -1.66533e-15 3.33067e-15
      vertex 20 1.66533e-15 15
      vertex 15 -5.54668e-31 7.5
    endloop
  endfacet
  facet normal -4.93038e-32 -1 2.22045e-16
    outer loop
      vertex 20 -1.66533e-15 4.44089e-15
      vertex 20 1.66533e-15 15
      vertex 15 -1.66533e-15 3.33067e-15
    endloop
  endfacet
  facet normal -4.93038e-32 -1 2.22045e-16
    outer loop
      vertex 15 1.66533e-15 15
      vertex 15 -5.54668e-31 7.5
      vertex 20 1.66533e-15 15
    endloop
  endfacet
  facet normal -1 0 -2.22045e-16
    outer loop
      vertex 15 0 7.5
      vertex 15 7.5 7.5
      vertex 15 -1.84889e-31 7.5
    endloop
  endfacet
  facet normal -1 0 -2.22045e-16
    outer loop
      vertex 15 -1.84889e-31 7.5
      vertex 15 7.5 7.5
      vertex 15 15 0
    endloop
  endfacet
  facet normal -1 0 -2.22045e-16
    outer loop
      vertex 15 -1.84889e-31 7.5
      vertex 15 15 0
      vertex 15 -1.66533e-15 3.33067e-15
    endloop
  endfacet
  facet normal -1 0 -2.22045e-16
    outer loop
      vertex 15 -1.84889e-31 7.5
      vertex 15 -1.66533e-15 3.33067e-15
      vertex 15 -5.54668e-31 7.5
    endloop
  endfacet
  facet normal 1 0 0
    outer loop
      vertex 15 0 7.5
      vertex 15 0 0
      vertex 15 15 0
    endloop
  endfacet
  facet normal 1 0 0
    outer loop
      vertex 15 7.5 7.5
      vertex 15 0 7.5
      vertex 15 15 0
    endloop
  endfacet
  facet normal 1 0 0
    outer loop
      vertex 15 15 15
      vertex 15 7.5 7.5
      vertex 15 15 0
    endloop
  endfacet
  facet normal 1 0 0
    outer loop
      vertex 15 4.996e-15 15
      vertex 15 7.5 7.5
      vertex 15 15 15
    endloop
  endfacet
  facet normal -1 0 0
    outer loop
      vertex 0 0 0
      vertex 0 0 15
      vertex 0 15 0
    endloop
  endfacet
  facet normal -1 0 0
    outer loop
      vertex 0 15 0
      vertex 0 0 15
      vertex 0 3.33067e-15 15
    endloop
  endfacet
  facet normal -1 0 0
    outer loop
      vertex 0 15 0
      vertex 0 3.33067e-15 15
      vertex 0 7.5 15
    endloop
  endfacet
  facet normal -1 0 0
    outer loop
      vertex 0 15 0
      vertex 0 7.5 15
      vertex 0 15 15
    endloop
  endfacet
  facet normal 0 0 1
    outer loop
      vertex 0 3.33067e-15 15
      vertex 0 0 15
      vertex 15 0 15
    endloop
  endfacet
  facet normal 0 0 1
    outer loop
      vertex 15 1.66533e-15 15
      vertex 0 3.33067e-15 15
      vertex 15 0 15
    endloop
  endfacet
  facet normal 0 0 1
    outer loop
      vertex 15 15 15
      vertex 0 3.33067e-15 15
      vertex 15 4.996e-15 15
    endloop
  endfacet
  facet normal 0 0 1
    outer loop
      vertex 15 1.66533e-15 15
      vertex 15 4.996e-15 15
      vertex 0 3.33067e-15 15
    endloop
  endfacet
  facet normal 0 0 -1
    outer loop
      vertex 0 0 0
      vertex 0 15 0
      vertex 15 0 0
    endloop
  endfacet
  facet normal 0 0 -1
    outer loop
      vertex 15 0 0
      vertex 0 15 0
      vertex 15 15 0
    endloop
  endfacet
  facet normal -1.57009e-16 0.707107 0.707107
    outer loop
      vertex 15 1.66533e-15 15
      vertex 20 1.66533e-15 15
      vertex 15 4.996e-15 15
    endloop
  endfacet
  facet normal -1.57009e-16 0.707107 0.707107
    outer loop
      vertex 15 4.996e-15 15
      vertex 20 1.66533e-15 15
      vertex 25 15 2.22045e-15
    endloop
  endfacet
  facet normal -1.57009e-16 0.707107 0.707107
    outer loop
      vertex 15 7.5 7.5
      vertex 25 15 2.22045e-15
      vertex 15 15 0
    endloop
  endfacet
  facet normal -1.57009e-16 0.707107 0.707107
    outer loop
      vertex 15 4.996e-15 15
      vertex 25 15 2.22045e-15
      vertex 15 7.5 7.5
    endloop
  endfacet
  facet normal 0.948683 -0.316228 2.80867e-16
    outer loop
      vertex 25 15 2.22045e-15
      vertex 20 1.66533e-15 15
      vertex 20 -1.66533e-15 4.44089e-15
    endloop
  endfacet
  facet normal 2.22045e-16 -2.22045e-16 -1
    outer loop
      vertex 15 -1.66533e-15 3.33067e-15
      vertex 15 15 0
      vertex 20 -1.66533e-15 4.44089e-15
    endloop
  endfacet
  facet normal 2.22045e-16 -2.22045e-16 -1
    outer loop
      vertex 20 -1.66533e-15 4.44089e-15
      vertex 15 15 0
      vertex 25 15 2.22045e-15
    endloop
  endfacet
  facet normal 0.707107 -0.707107 0
    outer loop
      vertex -1.66533e-15 1.66533e-15 25
      vertex -1.66533e-15 1.66533e-15 15
      vertex 0 3.33067e-15 15
    endloop
  endfacet
  facet normal 0.707107 -0.707107 0
    outer loop
      vertex 15 15 15
      vertex -1.66533e-15 1.66533e-15 25
      vertex 0 3.33067e-15 15
    endloop
  endfacet
  facet normal 0.707107 -0.707107 0
    outer loop
      vertex 15 15 20
      vertex -1.66533e-15 1.66533e-15 25
      vertex 15 15 15
    endloop
  endfacet
  facet normal 2.22045e-16 1 0
    outer loop
      vertex 1.66533e-15 15 15
      vertex 1.66533e-15 15 20
      vertex 7.5 15 15
    endloop
  endfacet
  facet normal 2.22045e-16 1 0
    outer loop
      vertex 7.5 15 15
      vertex 1.66533e-15 15 20
      vertex 15 15 20
    endloop
  endfacet
  facet normal 2.22045e-16 1 0
    outer loop
      vertex 7.5 15 15
      vertex 15 15 20
      vertex 15 15 15
    endloop
  endfacet
  facet normal 0 1 0
    outer loop
      vertex 0 15 0
      vertex 0 15 15
      vertex 15 15 0
    endloop
  endfacet
  facet normal 0 1 0
    outer loop
      vertex 15 15 0
      vertex 0 15 15
      vertex 1.66533e-15 15 15
    endloop
  endfacet
  facet normal 0 1 0
    outer loop
      vertex 15 15 0
      vertex 1.66533e-15 15 15
      vertex 7.5 15 15
    endloop
  endfacet
  facet normal 0 1 0
    outer loop
      vertex 15 15 0
      vertex 7.5 15 15
      vertex 15 15 15
    endloop
  endfacet
  facet normal 0 0 1
    outer loop
      vertex 0 15 15
      vertex 0 7.5 15
      vertex 1.66533e-15 15 15
    endloop
  endfacet
  facet normal 0 0 -1
    outer loop
      vertex 0 7.5 15
      vertex 0 3.33067e-15 15
      vertex -1.66533e-15 1.66533e-15 15
    endloop
  endfacet
  facet normal -1 2.22045e-16 0
    outer loop
      vertex -1.66533e-15 1.66533e-15 15
      vertex -1.66533e-15 1.66533e-15 25
      vertex 0 7.5 15
    endloop
  endfacet
  facet normal -1 2.22045e-16 0
    outer loop
      vertex 0 7.5 15
      vertex -1.66533e-15 1.66533e-15 25
      vertex 1.66533e-15 15 20
    endloop
  endfacet
  facet normal -1 2.22045e-16 0
    outer loop
      vertex 0 7.5 15
      vertex 1.66533e-15 15 20
      vertex 1.66533e-15 15 15
    endloop
  endfacet
  facet normal 7.02167e-17 0.316228 0.948683
    outer loop
      vertex 1.66533e-15 15 20
      vertex -1.66533e-15 1.66533e-15 25
      vertex 15 15 20
    endloop
  endfacet
  facet normal -2.22045e-16 -2.22045e-16 -1
    outer loop
      vertex 30 -5 4.44089e-15
      vertex 30 -1.66533e-15 3.33067e-15
      vertex 45 -5 1.11022e-15
    endloop
  endfacet
  facet normal -2.22045e-16 -2.22045e-16 -1
    outer loop
      vertex 45 -5 1.11022e-15
      vertex 30 -1.66533e-15 3.33067e-15
      vertex 45 -1.66533e-15 0
    endloop
  endfacet
  facet normal -0.707107 1.57009e-16 0.707107
    outer loop
      vertex 30 -1.66533e-15 3.33067e-15
      vertex 30 -5 4.44089e-15
      vertex 45 -10 15
    endloop
  endfacet
  facet normal -0.707107 1.57009e-16 0.707107
    outer loop
      vertex 45 0 15
      vertex 37.5 0 7.5
      vertex 30 -1.66533e-15 3.33067e-15
    endloop
  endfacet
  facet normal -0.707107 1.57009e-16 0.707107
    outer loop
      vertex 45 0 15
      vertex 30 -1.66533e-15 3.33067e-15
      vertex 45 -10 15
    endloop
  endfacet
  facet normal -0.707107 1.57009e-16 0.707107
    outer loop
      vertex 45 1.66533e-15 15
      vertex 45 0 15
      vertex 45 -10 15
    endloop
  endfacet
  facet normal -7.02167e-17 -0.948683 -0.316228
    outer loop
      vertex 45 -10 15
      vertex 30 -5 4.44089e-15
      vertex 45 -5 1.11022e-15
    endloop
  endfacet
  facet normal 1 -4.93038e-32 -2.22045e-16
    outer loop
      vertex 45 -10 15
      vertex 45 -5 1.11022e-15
      vertex 45 -1.66533e-15 0
    endloop
  endfacet
  facet normal 1 -4.93038e-32 -2.22045e-16
    outer loop
      vertex 45 -5.54668e-31 7.5
      vertex 45 -10 15
      vertex 45 -1.66533e-15 0
    endloop
  endfacet
  facet normal 1 -4.93038e-32 -2.22045e-16
    outer loop
      vertex 45 -1.84889e-31 7.5
      vertex 45 -5.54668e-31 7.5
      vertex 45 -1.66533e-15 0
    endloop
  endfacet
  facet normal 1 -4.93038e-32 -2.22045e-16
    outer loop
      vertex 45 -5.54668e-31 7.5
      vertex 45 1.66533e-15 15
      vertex 45 -10 15
    endloop
  endfacet
  facet normal 0 1 -2.22045e-16
    outer loop
      vertex 30 -1.66533e-15 3.33067e-15
      vertex 37.5 0 7.5
      vertex 45 -1.66533e-15 0
    endloop
  endfacet
  facet normal 0 1 -2.22045e-16
    outer loop
      vertex 45 -1.66533e-15 0
      vertex 37.5 0 7.5
      vertex 45 0 7.5
    endloop
  endfacet
  facet normal 0 1 -2.22045e-16
    outer loop
      vertex 45 -1.66533e-15 0
      vertex 45 0 7.5
      vertex 45 -1.84889e-31 7.5
    endloop
  endfacet
  facet normal 0 -1 0
    outer loop
      vertex 30 0 15
      vertex 30 0 0
      vertex 45 0 0
    endloop
  endfacet
  facet normal 0 -1 0
    outer loop
      vertex 37.5 0 7.5
      vertex 30 0 15
      vertex 45 0 0
    endloop
  endfacet
  facet normal 0 -1 0
    outer loop
      vertex 45 0 7.5
      vertex 37.5 0 7.5
      vertex 45 0 0
    endloop
  endfacet
  facet normal 0 -1 0
    outer loop
      vertex 37.5 0 15
      vertex 30 0 15
      vertex 45 0 15
    endloop
  endfacet
  facet normal 0 -1 0
    outer loop
      vertex 37.5 0 7.5
      vertex 45 0 15
      vertex 30 0 15
    endloop
  endfacet
  facet normal -4.93038e-32 -1 2.22045e-16
    outer loop
      vertex 45 -5.54668e-31 7.5
      vertex 45 -1.66533e-15 3.33067e-15
      vertex 45 1.66533e-15 15
    endloop
  endfacet
  facet normal -4.93038e-32 -1 2.22045e-16
    outer loop
      vertex 45 -1.66533e-15 3.33067e-15
      vertex 50 -1.66533e-15 4.44089e-15
      vertex 45 1.66533e-15 15
    endloop
  endfacet
  facet normal -4.93038e-32 -1 2.22045e-16
    outer loop
      vertex 50 -1.66533e-15 4.44089e-15
      vertex 50 1.66533e-15 15
      vertex 45 1.66533e-15 15
    endloop
  endfacet
  facet normal -1 0 -2.22045e-16
    outer loop
      vertex 45 0 7.5
      vertex 45 7.5 7.5
      vertex 45 -1.84889e-31 7.5
    endloop
  endfacet
  facet normal -1 0 -2.22045e-16
    outer loop
      vertex 45 -1.84889e-31 7.5
      vertex 45 7.5 7.5
      vertex 45 15 0
    endloop
  endfacet
  facet normal -1 0 -2.22045e-16
    outer loop
      vertex 45 -1.84889e-31 7.5
      vertex 45 15 0
      vertex 45 -1.66533e-15 3.33067e-15
    endloop
  endfacet
  facet normal -1 0 -2.22045e-16
    outer loop
      vertex 45 -1.84889e-31 7.5
      vertex 45 -1.66533e-15 3.33067e-15
      vertex 45 -5.54668e-31 7.5
    endloop
  endfacet
  facet normal 1 0 0
    outer loop
      vertex 45 0 7.5
      vertex 45 0 0
      vertex 45 15 0
    endloop
  endfacet
  facet normal 1 0 0
    outer loop
      vertex 45 7.5 7.5
      vertex 45 0 7.5
      vertex 45 15 0
    endloop
  endfacet
  facet normal 1 0 0
    outer loop
      vertex 45 15 15
      vertex 45 7.5 7.5
      vertex 45 15 0
    endloop
  endfacet
  facet normal 1 0 0
    outer loop
      vertex 45 7.5 15
      vertex 45 7.5 7.5
      vertex 45 15 15
    endloop
  endfacet
  facet normal 1 0 0
    outer loop
      vertex 45 4.996e-15 15
      vertex 45 7.5 7.5
      vertex 45 7.5 15
    endloop
  endfacet
  facet normal -1 0 0
    outer loop
      vertex 30 0 0
      vertex 30 0 15
      vertex 30 15 0
    endloop
  endfacet
  facet normal -1 0 0
    outer loop
      vertex 30 15 0
      vertex 30 0 15
      vertex 30 1.66533e-15 15
    endloop
  endfacet
  facet normal -1 0 0
    outer loop
      vertex 30 15 0
      vertex 30 1.66533e-15 15
      vertex 30 3.33067e-15 15
    endloop
  endfacet
  facet normal -1 0 0
    outer loop
      vertex 30 15 0
      vertex 30 3.33067e-15 15
      vertex 30 15 15
    endloop
  endfacet
  facet normal 0 0 1
    outer loop
      vertex 30 1.66533e-15 15
      vertex 30 0 15
      vertex 37.5 0 15
    endloop
  endfacet
  facet normal -2.22045e-16 -1 0
    outer loop
      vertex 45 -1.66533e-15 15
      vertex 30 1.66533e-15 20
      vertex 37.5 0 15
    endloop
  endfacet
  facet normal -2.22045e-16 -1 0
    outer loop
      vertex 37.5 0 15
      vertex 30 1.66533e-15 20
      vertex 30 1.66533e-15 15
    endloop
  endfacet
  facet normal -2.22045e-16 -1 0
    outer loop
      vertex 45 -1.66533e-15 20
      vertex 30 1.66533e-15 20
      vertex 45 -1.66533e-15 15
    endloop
  endfacet
  facet normal 0 0 -1
    outer loop
      vertex 45 0 15
      vertex 45 -1.66533e-15 15
      vertex 37.5 0 15
    endloop
  endfacet
  facet normal 1 -2.22045e-16 0
    outer loop
      vertex 45 -1.66533e-15 20
      vertex 45 -1.66533e-15 15
      vertex 45 0 15
    endloop
  endfacet
  facet normal 1 -2.22045e-16 0
    outer loop
      vertex 45 1.66533e-15 15
      vertex 45 -1.66533e-15 20
      vertex 45 0 15
    endloop
  endfacet
  facet normal 1 -2.22045e-16 0
    outer loop
      vertex 45 4.996e-15 15
      vertex 45 -1.66533e-15 20
      vertex 45 1.66533e-15 15
    endloop
  endfacet
  facet normal 1 -2.22045e-16 0
    outer loop
      vertex 45 7.5 15
      vertex 45 -1.66533e-15 20
      vertex 45 4.996e-15 15
    endloop
  endfacet
  facet normal 1 -2.22045e-16 0
    outer loop
      vertex 45 15 15
      vertex 45 -1.66533e-15 20
      vertex 45 7.5 15
    endloop
  endfacet
  facet normal 1 -2.22045e-16 0
    outer loop
      vertex 45 15 25
      vertex 45 -1.66533e-15 20
      vertex 45 15 15
    endloop
  endfacet
  facet normal 0 0 -1
    outer loop
      vertex 30 0 0
      vertex 30 15 0
      vertex 45 0 0
    endloop
  endfacet
  facet normal 0 0 -1
    outer loop
      vertex 45 0 0
      vertex 30 15 0
      vertex 45 15 0
    endloop
  endfacet
  facet normal -1.57009e-16 0.707107 0.707107
    outer loop
      vertex 45 1.66533e-15 15
      vertex 50 1.66533e-15 15
      vertex 45 4.996e-15 15
    endloop
  endfacet
  facet normal -1.57009e-16 0.707107 0.707107
    outer loop
      vertex 45 4.996e-15 15
      vertex 50 1.66533e-15 15
      vertex 55 15 2.22045e-15
    endloop
  endfacet
  facet normal -1.57009e-16 0.707107 0.707107
    outer loop
      vertex 45 4.996e-15 15
      vertex 55 15 2.22045e-15
      vertex 45 15 0
    endloop
  endfacet
  facet normal -1.57009e-16 0.707107 0.707107
    outer loop
      vertex 45 4.996e-15 15
      vertex 45 15 0
      vertex 45 7.5 7.5
    endloop
  endfacet
  facet normal 0.948683 -0.316228 2.80867e-16
    outer loop
      vertex 55 15 2.22045e-15
      vertex 50 1.66533e-15 15
      vertex 50 -1.66533e-15 4.44089e-15
    endloop
  endfacet
  facet normal 2.22045e-16 -2.22045e-16 -1
    outer loop
      vertex 45 -1.66533e-15 3.33067e-15
      vertex 45 15 0
      vertex 50 -1.66533e-15 4.44089e-15
    endloop
  endfacet
  facet normal 2.22045e-16 -2.22045e-16 -1
    outer loop
      vertex 50 -1.66533e-15 4.44089e-15
      vertex 45 15 0
      vertex 55 15 2.22045e-15
    endloop
  endfacet
  facet normal -0.707107 0.707107 0
    outer loop
      vertex 30 1.66533e-15 15
      vertex 30 1.66533e-15 20
      vertex 30 3.33067e-15 15
    endloop
  endfacet
  facet normal -0.707107 0.707107 0
    outer loop
      vertex 30 3.33067e-15 15
      vertex 30 1.66533e-15 20
      vertex 45 15 25
    endloop
  endfacet
  facet normal -0.707107 0.707107 0
    outer loop
      vertex 30 3.33067e-15 15
      vertex 45 15 25
      vertex 45 15 15
    endloop
  endfacet
  facet normal 0 0 1
    outer loop
      vertex 30 15 15
      vertex 30 3.33067e-15 15
      vertex 45 15 15
    endloop
  endfacet
  facet normal 0 1 0
    outer loop
      vertex 30 15 0
      vertex 30 15 15
      vertex 45 15 0
    endloop
  endfacet
  facet normal 0 1 0
    outer loop
      vertex 45 15 0
      vertex 30 15 15
      vertex 45 15 15
    endloop
  endfacet
  facet normal -7.02167e-17 -0.316228 0.948683
    outer loop
      vertex 45 15 25
      vertex 30 1.66533e-15 20
      vertex 45 -1.66533e-15 20
    endloop
  endfacet
  facet normal -2.22045e-16 -2.22045e-16 -1
    outer loop
      vertex 60 -5 4.44089e-15
      vertex 60 -1.66533e-15 3.33067e-15
      vertex 75 -5 1.11022e-15
    endloop
  endfacet
  facet normal -2.22045e-16 -2.22045e-16 -1
    outer loop
      vertex 75 -5 1.11022e-15
      vertex 60 -1.66533e-15 3.33067e-15
      vertex 75 -1.66533e-15 0
    endloop
  endfacet
  facet normal -0.707107 1.57009e-16 0.707107
    outer loop
      vertex 60 -1.66533e-15 3.33067e-15
      vertex 60 -5 4.44089e-15
      vertex 75 -10 15
    endloop
  endfacet
  facet normal -0.707107 1.57009e-16 0.707107
    outer loop
      vertex 75 0 15
      vertex 60 -1.66533e-15 3.33067e-15
      vertex 75 -10 15
    endloop
  endfacet
  facet normal -0.707107 1.57009e-16 0.707107
    outer loop
      vertex 75 1.66533e-15 15
      vertex 75 0 15
      vertex 75 -10 15
    endloop
  endfacet
  facet normal -0.707107 1.57009e-16 0.707107
    outer loop
      vertex 67.5 0 7.5
      vertex 60 -1.66533e-15 3.33067e-15
      vertex 75 0 15
    endloop
  endfacet
  facet normal -7.02167e-17 -0.948683 -0.316228
    outer loop
      vertex 75 -10 15
      vertex 60 -5 4.44089e-15
      vertex 75 -5 1.11022e-15
    endloop
  endfacet
  facet normal 1 -4.93038e-32 -2.22045e-16
    outer loop
      vertex 75 -10 15
      vertex 75 -5 1.11022e-15
      vertex 75 -1.66533e-15 0
    endloop
  endfacet
  facet normal 1 -4.93038e-32 -2.22045e-16
    outer loop
      vertex 75 1.66533e-15 15
      vertex 75 -10 15
      vertex 75 -1.66533e-15 0
    endloop
  endfacet
  facet normal 0 1 -2.22045e-16
    outer loop
      vertex 60 -1.66533e-15 3.33067e-15
      vertex 67.5 0 7.5
      vertex 75 -1.66533e-15 0
    endloop
  endfacet
  facet normal 0 1 -2.22045e-16
    outer loop
      vertex 75 -1.66533e-15 0
      vertex 67.5 0 7.5
      vertex 75 0 7.5
    endloop
  endfacet
  facet normal 0 1 -2.22045e-16
    outer loop
      vertex 75 0 7.5
      vertex 75 1.66533e-15 15
      vertex 75 -1.66533e-15 0
    endloop
  endfacet
  facet normal 0 -1 0
    outer loop
      vertex 60 0 15
      vertex 60 0 0
      vertex 75 0 0
    endloop
  endfacet
  facet normal 0 -1 0
    outer loop
      vertex 67.5 0 7.5
      vertex 60 0 15
      vertex 75 0 0
    endloop
  endfacet
  facet normal 0 -1 0
    outer loop
      vertex 75 0 7.5
      vertex 67.5 0 7.5
      vertex 75 0 0
    endloop
  endfacet
  facet normal 0 -1 0
    outer loop
      vertex 67.5 0 15
      vertex 60 0 15
      vertex 75 0 15
    endloop
  endfacet
  facet normal 0 -1 0
    outer loop
      vertex 67.5 0 7.5
      vertex 75 0 15
      vertex 60 0 15
    endloop
  endfacet
  facet normal 1 0 0
    outer loop
      vertex 75 0 7.5
      vertex 75 0 0
      vertex 75 15 0
    endloop
  endfacet
  facet normal 1 0 0
    outer loop
      vertex 75 15 15
      vertex 75 0 7.5
      vertex 75 7.5 7.5
    endloop
  endfacet
  facet normal 1 0 0
    outer loop
      vertex 75 7.5 7.5
      vertex 75 0 7.5
      vertex 75 15 0
    endloop
  endfacet
  facet normal 1 0 0
    outer loop
      vertex 75 15 7.5
      vertex 75 7.5 7.5
      vertex 75 15 0
    endloop
  endfacet
  facet normal 1 0 0
    outer loop
      vertex 75 15 15
      vertex 75 7.5 15
      vertex 75 0 7.5
    endloop
  endfacet
  facet normal 1 0 0
    outer loop
      vertex 75 7.5 15
      vertex 75 1.66533e-15 15
      vertex 75 0 7.5
    endloop
  endfacet
  facet normal 1 0 0
    outer loop
      vertex 75 7.5 15
      vertex 75 0 15
      vertex 75 1.66533e-15 15
    endloop
  endfacet
  facet normal -1 0 0
    outer loop
      vertex 60 0 0
      vertex 60 0 15
      vertex 60 15 0
    endloop
  endfacet
  facet normal -1 0 0
    outer loop
      vertex 60 15 0
      vertex 60 0 15
      vertex 60 1.66533e-15 15
    endloop
  endfacet
  facet normal -1 0 0
    outer loop
      vertex 60 15 0
      vertex 60 1.66533e-15 15
      vertex 60 3.33067e-15 15
    endloop
  endfacet
  facet normal -1 0 0
    outer loop
      vertex 60 15 0
      vertex 60 3.33067e-15 15
      vertex 60 15 15
    endloop
  endfacet
  facet normal 0 0 1
    outer loop
      vertex 60 1.66533e-15 15
      vertex 60 0 15
      vertex 67.5 0 15
    endloop
  endfacet
  facet normal -2.22045e-16 -1 0
    outer loop
      vertex 75 -1.66533e-15 15
      vertex 60 1.66533e-15 20
      vertex 67.5 0 15
    endloop
  endfacet
  facet normal -2.22045e-16 -1 0
    outer loop
      vertex 67.5 0 15
      vertex 60 1.66533e-15 20
      vertex 60 1.66533e-15 15
    endloop
  endfacet
  facet normal -2.22045e-16 -1 0
    outer loop
      vertex 75 -1.66533e-15 20
      vertex 60 1.66533e-15 20
      vertex 75 -1.66533e-15 15
    endloop
  endfacet
  facet normal 0 0 -1
    outer loop
      vertex 75 0 15
      vertex 75 -1.66533e-15 15
      vertex 67.5 0 15
    endloop
  endfacet
  facet normal 1 -2.22045e-16 0
    outer loop
      vertex 75 -1.66533e-15 20
      vertex 75 -1.66533e-15 15
      vertex 75 0 15
    endloop
  endfacet
  facet normal 1 -2.22045e-16 0
    outer loop
      vertex 75 15 15
      vertex 75 -1.66533e-15 20
      vertex 75 7.5 15
    endloop
  endfacet
  facet normal 1 -2.22045e-16 0
    outer loop
      vertex 75 7.5 15
      vertex 75 -1.66533e-15 20
      vertex 75 0 15
    endloop
  endfacet
  facet normal 1 -2.22045e-16 0
    outer loop
      vertex 75 15 25
      vertex 75 -1.66533e-15 20
      vertex 75 15 15
    endloop
  endfacet
  facet normal 0 0 -1
    outer loop
      vertex 60 0 0
      vertex 60 15 0
      vertex 75 0 0
    endloop
  endfacet
  facet normal 0 0 -1
    outer loop
      vertex 75 0 0
      vertex 60 15 0
      vertex 75 15 0
    endloop
  endfacet
  facet normal -0.707107 0.707107 0
    outer loop
      vertex 60 1.66533e-15 15
      vertex 60 1.66533e-15 20
      vertex 60 3.33067e-15 15
    endloop
  endfacet
  facet normal -0.707107 0.707107 0
    outer loop
      vertex 60 3.33067e-15 15
      vertex 60 1.66533e-15 20
      vertex 75 15 25
    endloop
  endfacet
  facet normal -0.707107 0.707107 0
    outer loop
      vertex 60 3.33067e-15 15
      vertex 75 15 25
      vertex 75 15 15
    endloop
  endfacet
  facet normal 0 0 1
    outer loop
      vertex 60 15 15
      vertex 60 3.33067e-15 15
      vertex 75 15 15
    endloop
  endfacet
  facet normal 0 1 0
    outer loop
      vertex 60 15 0
      vertex 60 15 15
      vertex 75 15 0
    endloop
  endfacet
  facet normal 0 1 0
    outer loop
      vertex 75 15 0
      vertex 60 15 15
      vertex 75 15 15
    endloop
  endfacet
  facet normal 0 1 0
    outer loop
      vertex 75 15 0
      vertex 75 15 15
      vertex 75 15 7.5
    endloop
  endfacet
  facet normal -1.57009e-16 -0.707107 0.707107
    outer loop
      vertex 75 7.5 7.5
      vertex 85 15 15
      vertex 75 15 15
    endloop
  endfacet
  facet normal -1.57009e-16 -0.707107 0.707107
    outer loop
      vertex 75 -9.18485e-16 2.58382e-15
      vertex 85 15 15
      vertex 75 7.5 7.5
    endloop
  endfacet
  facet normal -1.57009e-16 -0.707107 0.707107
    outer loop
      vertex 80 -9.18485e-16 3.69404e-15
      vertex 85 15 15
      vertex 75 -9.18485e-16 2.58382e-15
    endloop
  endfacet
  facet normal -1 0 -2.22045e-16
    outer loop
      vertex 75 7.5 7.5
      vertex 75 15 7.46849e-16
      vertex 75 -9.18485e-16 2.58382e-15
    endloop
  endfacet
  facet normal -1 0 -2.22045e-16
    outer loop
      vertex 75 15 15
      vertex 75 15 7.46849e-16
      vertex 75 15 7.5
    endloop
  endfacet
  facet normal -1 0 -2.22045e-16
    outer loop
      vertex 75 15 7.5
      vertex 75 15 7.46849e-16
      vertex 75 7.5 7.5
    endloop
  endfacet
  facet normal -7.02167e-17 -0.316228 0.948683
    outer loop
      vertex 75 15 25
      vertex 60 1.66533e-15 20
      vertex 75 -1.66533e-15 20
    endloop
  endfacet
  facet normal 2.71926e-32 1 -1.22465e-16
    outer loop
      vertex 75 15 15
      vertex 85 15 15
      vertex 75 15 7.46849e-16
    endloop
  endfacet
  facet normal 2.71926e-32 1 -1.22465e-16
    outer loop
      vertex 75 15 7.46849e-16
      vertex 85 15 15
      vertex 80 15 1.85707e-15
    endloop
  endfacet
  facet normal 0.948683 -3.87267e-17 -0.316228
    outer loop
      vertex 85 15 15
      vertex 80 -9.18485e-16 3.69404e-15
      vertex 80 15 1.85707e-15
    endloop
  endfacet
  facet normal 2.22045e-16 -1.22465e-16 -1
    outer loop
      vertex 75 -9.18485e-16 2.58382e-15
      vertex 75 15 7.46849e-16
      vertex 80 -9.18485e-16 3.69404e-15
    endloop
  endfacet
  facet normal 2.22045e-16 -1.22465e-16 -1
    outer loop
      vertex 80 -9.18485e-16 3.69404e-15
      vertex 75 15 7.46849e-16
      vertex 80 15 1.85707e-15
    endloop
  endfacet
  facet normal -1 5.43852e-32 2.44929e-16
    outer loop
      vertex 90 -5 4.61253e-15
      vertex 90 -5 15
      vertex 90 -1.66533e-15 3.5023e-15
    endloop
  endfacet
  facet normal -1 5.43852e-32 2.44929e-16
    outer loop
      vertex 90 0 15
      vertex 90 -5 15
      vertex 90 1.66533e-15 15
    endloop
  endfacet
  facet normal -1 5.43852e-32 2.44929e-16
    outer loop
      vertex 90 -1.66533e-15 3.5023e-15
      vertex 90 -5 15
      vertex 90 0 15
    endloop
  endfacet
  facet normal -1 5.43852e-32 2.44929e-16
    outer loop
      vertex 90 4.07889e-31 7.5
      vertex 90 -1.66533e-15 3.5023e-15
      vertex 90 0 7.5
    endloop
  endfacet
  facet normal -1 5.43852e-32 2.44929e-16
    outer loop
      vertex 90 0 7.5
      vertex 90 -1.66533e-15 3.5023e-15
      vertex 90 0 15
    endloop
  endfacet
  facet normal -0.316228 -0.948683 2.88103e-16
    outer loop
      vertex 90 -5 15
      vertex 90 -5 4.61253e-15
      vertex 105 -10 2.04881e-15
    endloop
  endfacet
  facet normal -2.44929e-16 -2.22045e-16 -1
    outer loop
      vertex 90 -5 4.61253e-15
      vertex 90 -1.66533e-15 3.5023e-15
      vertex 105 -10 2.04881e-15
    endloop
  endfacet
  facet normal -2.44929e-16 -2.22045e-16 -1
    outer loop
      vertex 105 -10 2.04881e-15
      vertex 90 -1.66533e-15 3.5023e-15
      vertex 105 -1.66533e-15 -1.71636e-16
    endloop
  endfacet
  facet normal 0 1 -2.22045e-16
    outer loop
      vertex 90 -1.66533e-15 3.5023e-15
      vertex 90 0 7.5
      vertex 105 -1.66533e-15 -1.71636e-16
    endloop
  endfacet
  facet normal 0 1 -2.22045e-16
    outer loop
      vertex 90 -1.66533e-15 3.5023e-15
      vertex 90 4.07889e-31 7.5
      vertex 90 0 7.5
    endloop
  endfacet
  facet normal 0 1 -2.22045e-16
    outer loop
      vertex 97.5 0 7.5
      vertex 105 -1.66533e-15 -1.71636e-16
      vertex 90 0 7.5
    endloop
  endfacet
  facet normal -1 0 0
    outer loop
      vertex 90 0 0
      vertex 90 0 7.5
      vertex 90 15 0
    endloop
  endfacet
  facet normal -1 0 0
    outer loop
      vertex 90 15 0
      vertex 90 0 7.5
      vertex 90 4.07889e-31 7.5
    endloop
  endfacet
  facet normal -1 0 0
    outer loop
      vertex 90 4.07889e-31 7.5
      vertex 90 0 7.5
      vertex 90 0 15
    endloop
  endfacet
  facet normal -1 0 0
    outer loop
      vertex 90 4.07889e-31 7.5
      vertex 90 0 15
      vertex 90 15 0
    endloop
  endfacet
  facet normal -1 0 0
    outer loop
      vertex 90 15 0
      vertex 90 0 15
      vertex 90 1.66533e-15 15
    endloop
  endfacet
  facet normal -1 0 0
    outer loop
      vertex 90 15 0
      vertex 90 1.66533e-15 15
      vertex 90 3.33067e-15 15
    endloop
  endfacet
  facet normal -1 0 0
    outer loop
      vertex 90 15 0
      vertex 90 3.33067e-15 15
      vertex 90 15 15
    endloop
  endfacet
  facet normal -2.22045e-16 -1 0
    outer loop
      vertex 97.5 0 15
      vertex 90 1.66533e-15 20
      vertex 90 1.66533e-15 15
    endloop
  endfacet
  facet normal -2.22045e-16 -1 0
    outer loop
      vertex 105 -1.66533e-15 15
      vertex 90 1.66533e-15 20
      vertex 97.5 0 15
    endloop
  endfacet
  facet normal -2.22045e-16 -1 0
    outer loop
      vertex 105 -1.66533e-15 20
      vertex 90 1.66533e-15 20
      vertex 105 -1.66533e-15 15
    endloop
  endfacet
  facet normal 0.707107 1.57009e-16 0.707107
    outer loop
      vertex 90 1.66533e-15 15
      vertex 90 -5 15
      vertex 105 -10 2.04881e-15
    endloop
  endfacet
  facet normal 0.707107 1.57009e-16 0.707107
    outer loop
      vertex 90 0 15
      vertex 90 1.66533e-15 15
      vertex 105 -10 2.04881e-15
    endloop
  endfacet
  facet normal 0.707107 1.57009e-16 0.707107
    outer loop
      vertex 105 -1.66533e-15 -1.71636e-16
      vertex 90 0 15
      vertex 105 -10 2.04881e-15
    endloop
  endfacet
  facet normal 0.707107 1.57009e-16 0.707107
    outer loop
      vertex 97.5 0 7.5
      vertex 90 0 15
      vertex 105 -1.66533e-15 -1.71636e-16
    endloop
  endfacet
  facet normal 0 -1 0
    outer loop
      vertex 90 0 7.5
      vertex 90 0 0
      vertex 105 0 0
    endloop
  endfacet
  facet normal 0 -1 0
    outer loop
      vertex 97.5 0 7.5
      vertex 90 0 7.5
      vertex 105 0 0
    endloop
  endfacet
  facet normal 0 -1 0
    outer loop
      vertex 105 0 7.5
      vertex 97.5 0 7.5
      vertex 105 0 0
    endloop
  endfacet
  facet normal 0 -1 0
    outer loop
      vertex 97.5 0 15
      vertex 105 0 7.5
      vertex 105 0 15
    endloop
  endfacet
  facet normal 0 -1 0
    outer loop
      vertex 90 0 15
      vertex 105 0 7.5
      vertex 97.5 0 15
    endloop
  endfacet
  facet normal 0 -1 0
    outer loop
      vertex 90 0 15
      vertex 97.5 0 7.5
      vertex 105 0 7.5
    endloop
  endfacet
  facet normal 0 0 -1
    outer loop
      vertex 90 0 0
      vertex 90 15 0
      vertex 105 0 0
    endloop
  endfacet
  facet normal 0 0 -1
    outer loop
      vertex 105 0 0
      vertex 90 15 0
      vertex 105 15 0
    endloop
  endfacet
  facet normal 0 1 0
    outer loop
      vertex 90 15 0
      vertex 90 15 15
      vertex 105 15 0
    endloop
  endfacet
  facet normal 0 1 0
    outer loop
      vertex 105 15 0
      vertex 90 15 15
      vertex 105 15 15
    endloop
  endfacet
  facet normal 0 0 1
    outer loop
      vertex 90 15 15
      vertex 90 3.33067e-15 15
      vertex 105 15 15
    endloop
  endfacet
  facet normal -0.707107 0.707107 0
    outer loop
      vertex 90 1.66533e-15 15
      vertex 90 1.66533e-15 20
      vertex 90 3.33067e-15 15
    endloop
  endfacet
  facet normal -0.707107 0.707107 0
    outer loop
      vertex 90 3.33067e-15 15
      vertex 90 1.66533e-15 20
      vertex 105 15 25
    endloop
  endfacet
  facet normal -0.707107 0.707107 0
    outer loop
      vertex 90 3.33067e-15 15
      vertex 105 15 25
      vertex 105 15 15
    endloop
  endfacet
  facet normal -7.02167e-17 -0.316228 0.948683
    outer loop
      vertex 105 15 25
      vertex 90 1.66533e-15 20
      vertex 105 -1.66533e-15 20
    endloop
  endfacet
  facet normal 1 -2.22045e-16 0
    outer loop
      vertex 105 -1.66533e-15 20
      vertex 105 -1.66533e-15 15
      vertex 105 0 15
    endloop
  endfacet
  facet normal 1 -2.22045e-16 0
    outer loop
      vertex 105 1.66533e-15 15
      vertex 105 -1.66533e-15 20
      vertex 105 0 15
    endloop
  endfacet
  facet normal 1 -2.22045e-16 0
    outer loop
      vertex 105 4.996e-15 15
      vertex 105 -1.66533e-15 20
      vertex 105 1.66533e-15 15
    endloop
  endfacet
  facet normal 1 -2.22045e-16 0
    outer loop
      vertex 105 7.5 15
      vertex 105 -1.66533e-15 20
      vertex 105 4.996e-15 15
    endloop
  endfacet
  facet normal 1 -2.22045e-16 0
    outer loop
      vertex 105 15 15
      vertex 105 -1.66533e-15 20
      vertex 105 7.5 15
    endloop
  endfacet
  facet normal 1 -2.22045e-16 0
    outer loop
      vertex 105 15 25
      vertex 105 -1.66533e-15 20
      vertex 105 15 15
    endloop
  endfacet
  facet normal 0 0 -1
    outer loop
      vertex 105 0 15
      vertex 105 -1.66533e-15 15
      vertex 97.5 0 15
    endloop
  endfacet
  facet normal 0 0 1
    outer loop
      vertex 97.5 0 15
      vertex 90 1.66533e-15 15
      vertex 90 0 15
    endloop
  endfacet
  facet normal 1 0 0
    outer loop
      vertex 105 0 15
      vertex 105 0 7.5
      vertex 105 1.66533e-15 15
    endloop
  endfacet
  facet normal -4.93038e-32 -1 2.22045e-16
    outer loop
      vertex 105 0 7.5
      vertex 105 -1.66533e-15 3.33067e-15
      vertex 105 1.66533e-15 15
    endloop
  endfacet
  facet normal -4.93038e-32 -1 2.22045e-16
    outer loop
      vertex 105 -1.66533e-15 3.33067e-15
      vertex 110 -1.66533e-15 4.44089e-15
      vertex 105 1.66533e-15 15
    endloop
  endfacet
  facet normal -4.93038e-32 -1 2.22045e-16
    outer loop
      vertex 110 -1.66533e-15 4.44089e-15
      vertex 110 1.66533e-15 15
      vertex 105 1.66533e-15 15
    endloop
  endfacet
  facet normal -1 0 -2.22045e-16
    outer loop
      vertex 105 -1.66533e-15 3.33067e-15
      vertex 105 0 7.5
      vertex 105 7.5 7.5
    endloop
  endfacet
  facet normal -1 0 -2.22045e-16
    outer loop
      vertex 105 -1.66533e-15 3.33067e-15
      vertex 105 7.5 7.5
      vertex 105 15 0
    endloop
  endfacet
  facet normal 1 0 0
    outer loop
      vertex 105 0 7.5
      vertex 105 0 0
      vertex 105 15 0
    endloop
  endfacet
  facet normal 1 0 0
    outer loop
      vertex 105 7.5 7.5
      vertex 105 0 7.5
      vertex 105 15 0
    endloop
  endfacet
  facet normal 1 0 0
    outer loop
      vertex 105 15 15
      vertex 105 7.5 7.5
      vertex 105 15 0
    endloop
  endfacet
  facet normal 1 0 0
    outer loop
      vertex 105 7.5 15
      vertex 105 7.5 7.5
      vertex 105 15 15
    endloop
  endfacet
  facet normal 1 0 0
    outer loop
      vertex 105 4.996e-15 15
      vertex 105 7.5 7.5
      vertex 105 7.5 15
    endloop
  endfacet
  facet normal -1.57009e-16 0.707107 0.707107
    outer loop
      vertex 105 1.66533e-15 15
      vertex 110 1.66533e-15 15
      vertex 105 4.996e-15 15
    endloop
  endfacet
  facet normal -1.57009e-16 0.707107 0.707107
    outer loop
      vertex 105 4.996e-15 15
      vertex 110 1.66533e-15 15
      vertex 115 15 2.22045e-15
    endloop
  endfacet
  facet normal -1.57009e-16 0.707107 0.707107
    outer loop
      vertex 105 4.996e-15 15
      vertex 115 15 2.22045e-15
      vertex 105 15 0
    endloop
  endfacet
  facet normal -1.57009e-16 0.707107 0.707107
    outer loop
      vertex 105 4.996e-15 15
      vertex 105 15 0
      vertex 105 7.5 7.5
    endloop
  endfacet
  facet normal 0.948683 -0.316228 2.80867e-16
    outer loop
      vertex 115 15 2.22045e-15
      vertex 110 1.66533e-15 15
      vertex 110 -1.66533e-15 4.44089e-15
    endloop
  endfacet
  facet normal 2.22045e-16 -2.22045e-16 -1
    outer loop
      vertex 105 -1.66533e-15 3.33067e-15
      vertex 105 15 0
      vertex 110 -1.66533e-15 4.44089e-15
    endloop
  endfacet
  facet normal 2.22045e-16 -2.22045e-16 -1
    outer loop
      vertex 110 -1.66533e-15 4.44089e-15
      vertex 105 15 0
      vertex 115 15 2.22045e-15
    endloop
  endfacet
  facet normal -2.22045e-16 -2.22045e-16 -1
    outer loop
      vertex 120 -5 4.44089e-15
      vertex 120 -1.66533e-15 3.33067e-15
      vertex 135 -5 1.11022e-15
    endloop
  endfacet
  facet normal -2.22045e-16 -2.22045e-16 -1
    outer loop
      vertex 135 -5 1.11022e-15
      vertex 120 -1.66533e-15 3.33067e-15
      vertex 135 -1.66533e-15 0
    endloop
  endfacet
  facet normal -0.707107 1.57009e-16 0.707107
    outer loop
      vertex 120 -1.66533e-15 3.33067e-15
      vertex 120 -5 4.44089e-15
      vertex 135 -10 15
    endloop
  endfacet
  facet normal -0.707107 1.57009e-16 0.707107
    outer loop
      vertex 135 0 15
      vertex 120 -1.66533e-15 3.33067e-15
      vertex 135 -10 15
    endloop
  endfacet
  facet normal -0.707107 1.57009e-16 0.707107
    outer loop
      vertex 135 1.66533e-15 15
      vertex 135 0 15
      vertex 135 -10 15
    endloop
  endfacet
  facet normal -0.707107 1.57009e-16 0.707107
    outer loop
      vertex 127.5 0 7.5
      vertex 120 -1.66533e-15 3.33067e-15
      vertex 135 0 15
    endloop
  endfacet
  facet normal -7.02167e-17 -0.948683 -0.316228
    outer loop
      vertex 135 -10 15
      vertex 120 -5 4.44089e-15
      vertex 135 -5 1.11022e-15
    endloop
  endfacet
  facet normal 1 -4.93038e-32 -2.22045e-16
    outer loop
      vertex 135 -10 15
      vertex 135 -5 1.11022e-15
      vertex 135 -1.66533e-15 0
    endloop
  endfacet
  facet normal 1 -4.93038e-32 -2.22045e-16
    outer loop
      vertex 135 1.66533e-15 15
      vertex 135 -10 15
      vertex 135 -1.66533e-15 0
    endloop
  endfacet
  facet normal 0 1 -2.22045e-16
    outer loop
      vertex 120 -1.66533e-15 3.33067e-15
      vertex 127.5 0 7.5
      vertex 135 -1.66533e-15 0
    endloop
  endfacet
  facet normal 0 1 -2.22045e-16
    outer loop
      vertex 135 -1.66533e-15 0
      vertex 127.5 0 7.5
      vertex 135 0 7.5
    endloop
  endfacet
  facet normal 0 1 -2.22045e-16
    outer loop
      vertex 135 0 7.5
      vertex 135 1.66533e-15 15
      vertex 135 -1.66533e-15 0
    endloop
  endfacet
  facet normal 0 -1 0
    outer loop
      vertex 120 0 15
      vertex 120 0 0
      vertex 135 0 0
    endloop
  endfacet
  facet normal 0 -1 0
    outer loop
      vertex 127.5 0 7.5
      vertex 120 0 15
      vertex 135 0 0
    endloop
  endfacet
  facet normal 0 -1 0
    outer loop
      vertex 135 0 7.5
      vertex 127.5 0 7.5
      vertex 135 0 0
    endloop
  endfacet
  facet normal 0 -1 0
    outer loop
      vertex 127.5 0 7.5
      vertex 135 0 15
      vertex 120 0 15
    endloop
  endfacet
  facet normal 1 0 0
    outer loop
      vertex 135 0 7.5
      vertex 135 0 0
      vertex 135 15 0
    endloop
  endfacet
  facet normal 1 0 0
    outer loop
      vertex 135 15 15
      vertex 135 0 7.5
      vertex 135 7.5 7.5
    endloop
  endfacet
  facet normal 1 0 0
    outer loop
      vertex 135 7.5 7.5
      vertex 135 0 7.5
      vertex 135 15 0
    endloop
  endfacet
  facet normal 1 0 0
    outer loop
      vertex 135 15 7.5
      vertex 135 7.5 7.5
      vertex 135 15 0
    endloop
  endfacet
  facet normal 1 0 0
    outer loop
      vertex 135 15 15
      vertex 135 7.5 15
      vertex 135 0 7.5
    endloop
  endfacet
  facet normal 1 0 0
    outer loop
      vertex 135 7.5 15
      vertex 135 1.66533e-15 15
      vertex 135 0 7.5
    endloop
  endfacet
  facet normal 1 0 0
    outer loop
      vertex 135 7.5 15
      vertex 135 0 15
      vertex 135 1.66533e-15 15
    endloop
  endfacet
  facet normal -1 0 0
    outer loop
      vertex 120 0 0
      vertex 120 0 15
      vertex 120 15 0
    endloop
  endfacet
  facet normal -1 0 0
    outer loop
      vertex 120 15 0
      vertex 120 0 15
      vertex 120 15 15
    endloop
  endfacet
  facet normal 0 0 1
    outer loop
      vertex 120 15 15
      vertex 120 0 15
      vertex 135 0 15
    endloop
  endfacet
  facet normal -0.707107 -0.707107 0
    outer loop
      vertex 120 15 25
      vertex 120 15 15
      vertex 135 0 15
    endloop
  endfacet
  facet normal -0.707107 -0.707107 0
    outer loop
      vertex 120 15 25
      vertex 135 0 15
      vertex 135 -9.18485e-16 15
    endloop
  endfacet
  facet normal -0.707107 -0.707107 0
    outer loop
      vertex 120 15 25
      vertex 135 -9.18485e-16 15
      vertex 135 -9.18485e-16 20
    endloop
  endfacet
  facet normal 1 -1.22465e-16 0
    outer loop
      vertex 135 -9.18485e-16 20
      vertex 135 -9.18485e-16 15
      vertex 135 0 15
    endloop
  endfacet
  facet normal 1 -1.22465e-16 0
    outer loop
      vertex 135 15 15
      vertex 135 -9.18485e-16 20
      vertex 135 7.5 15
    endloop
  endfacet
  facet normal 1 -1.22465e-16 0
    outer loop
      vertex 135 7.5 15
      vertex 135 -9.18485e-16 20
      vertex 135 0 15
    endloop
  endfacet
  facet normal 1 -1.22465e-16 0
    outer loop
      vertex 135 15 20
      vertex 135 -9.18485e-16 20
      vertex 135 15 15
    endloop
  endfacet
  facet normal 0 0 -1
    outer loop
      vertex 120 0 0
      vertex 120 15 0
      vertex 135 0 0
    endloop
  endfacet
  facet normal 0 0 -1
    outer loop
      vertex 135 0 0
      vertex 120 15 0
      vertex 135 15 0
    endloop
  endfacet
  facet normal 1.22465e-16 1 0
    outer loop
      vertex 120 15 15
      vertex 120 15 25
      vertex 127.5 15 15
    endloop
  endfacet
  facet normal 1.22465e-16 1 0
    outer loop
      vertex 127.5 15 15
      vertex 120 15 25
      vertex 135 15 20
    endloop
  endfacet
  facet normal 1.22465e-16 1 0
    outer loop
      vertex 127.5 15 15
      vertex 135 15 20
      vertex 135 15 15
    endloop
  endfacet
  facet normal 0 1 0
    outer loop
      vertex 120 15 0
      vertex 120 15 15
      vertex 135 15 0
    endloop
  endfacet
  facet normal 0 1 0
    outer loop
      vertex 135 15 0
      vertex 120 15 15
      vertex 127.5 15 15
    endloop
  endfacet
  facet normal 0 1 0
    outer loop
      vertex 135 15 0
      vertex 127.5 15 15
      vertex 135 15 15
    endloop
  endfacet
  facet normal 0 1 0
    outer loop
      vertex 135 15 0
      vertex 135 15 15
      vertex 135 15 7.5
    endloop
  endfacet
  facet normal -1.57009e-16 -0.707107 0.707107
    outer loop
      vertex 135 7.5 7.5
      vertex 145 15 15
      vertex 135 15 15
    endloop
  endfacet
  facet normal -1.57009e-16 -0.707107 0.707107
    outer loop
      vertex 135 -9.18485e-16 2.58382e-15
      vertex 145 15 15
      vertex 135 7.5 7.5
    endloop
  endfacet
  facet normal -1.57009e-16 -0.707107 0.707107
    outer loop
      vertex 140 -9.18485e-16 3.69404e-15
      vertex 145 15 15
      vertex 135 -9.18485e-16 2.58382e-15
    endloop
  endfacet
  facet normal -1 0 -2.22045e-16
    outer loop
      vertex 135 7.5 7.5
      vertex 135 15 7.46849e-16
      vertex 135 -9.18485e-16 2.58382e-15
    endloop
  endfacet
  facet normal -1 0 -2.22045e-16
    outer loop
      vertex 135 15 15
      vertex 135 15 7.46849e-16
      vertex 135 15 7.5
    endloop
  endfacet
  facet normal -1 0 -2.22045e-16
    outer loop
      vertex 135 15 7.5
      vertex 135 15 7.46849e-16
      vertex 135 7.5 7.5
    endloop
  endfacet
  facet normal 0.316228 -3.87267e-17 0.948683
    outer loop
      vertex 135 15 20
      vertex 120 15 25
      vertex 135 -9.18485e-16 20
    endloop
  endfacet
  facet normal 2.71926e-32 1 -1.22465e-16
    outer loop
      vertex 135 15 15
      vertex 145 15 15
      vertex 135 15 7.46849e-16
    endloop
  endfacet
  facet normal 2.71926e-32 1 -1.22465e-16
    outer loop
      vertex 135 15 7.46849e-16
      vertex 145 15 15
      vertex 140 15 1.85707e-15
    endloop
  endfacet
  facet normal 0.948683 -3.87267e-17 -0.316228
    outer loop
      vertex 145 15 15
      vertex 140 -9.18485e-16 3.69404e-15
      vertex 140 15 1.85707e-15
    endloop
  endfacet
  facet normal 2.22045e-16 -1.22465e-16 -1
    outer loop
      vertex 135 -9.18485e-16 2.58382e-15
      vertex 135 15 7.46849e-16
      vertex 140 -9.18485e-16 3.69404e-15
    endloop
  endfacet
  facet normal 2.22045e-16 -1.22465e-16 -1
    outer loop
      vertex 140 -9.18485e-16 3.69404e-15
      vertex 135 15 7.46849e-16
      vertex 140 15 1.85707e-15
    endloop
  endfacet
  facet normal -2.22045e-16 -2.22045e-16 -1
    outer loop
      vertex 150 -5 4.44089e-15
      vertex 150 -1.66533e-15 3.33067e-15
      vertex 165 -5 1.11022e-15
    endloop
  endfacet
  facet normal -2.22045e-16 -2.22045e-16 -1
    outer loop
      vertex 165 -5 1.11022e-15
      vertex 150 -1.66533e-15 3.33067e-15
      vertex 165 -1.66533e-15 0
    endloop
  endfacet
  facet normal -0.707107 1.57009e-16 0.707107
    outer loop
      vertex 150 -1.66533e-15 3.33067e-15
      vertex 150 -5 4.44089e-15
      vertex 165 -10 15
    endloop
  endfacet
  facet normal -0.707107 1.57009e-16 0.707107
    outer loop
      vertex 165 0 15
      vertex 150 -1.66533e-15 3.33067e-15
      vertex 165 -10 15
    endloop
  endfacet
  facet normal -0.707107 1.57009e-16 0.707107
    outer loop
      vertex 165 1.66533e-15 15
      vertex 165 0 15
      vertex 165 -10 15
    endloop
  endfacet
  facet normal -0.707107 1.57009e-16 0.707107
    outer loop
      vertex 157.5 0 7.5
      vertex 150 -1.66533e-15 3.33067e-15
      vertex 165 0 15
    endloop
  endfacet
  facet normal -7.02167e-17 -0.948683 -0.316228
    outer loop
      vertex 165 -10 15
      vertex 150 -5 4.44089e-15
      vertex 165 -5 1.11022e-15
    endloop
  endfacet
  facet normal 1 -4.93038e-32 -2.22045e-16
    outer loop
      vertex 165 -10 15
      vertex 165 -5 1.11022e-15
      vertex 165 -1.66533e-15 0
    endloop
  endfacet
  facet normal 1 -4.93038e-32 -2.22045e-16
    outer loop
      vertex 165 -6.53873e-31 7.5
      vertex 165 -10 15
      vertex 165 -1.66533e-15 0
    endloop
  endfacet
  facet normal 1 -4.93038e-32 -2.22045e-16
    outer loop
      vertex 165 -1.84889e-31 7.5
      vertex 165 -6.53873e-31 7.5
      vertex 165 -1.66533e-15 0
    endloop
  endfacet
  facet normal 1 -4.93038e-32 -2.22045e-16
    outer loop
      vertex 165 1.66533e-15 15
      vertex 165 -10 15
      vertex 165 4.36553e-30 7.5
    endloop
  endfacet
  facet normal 1 -4.93038e-32 -2.22045e-16
    outer loop
      vertex 165 -6.53873e-31 7.5
      vertex 165 4.36553e-30 7.5
      vertex 165 -10 15
    endloop
  endfacet
  facet normal 0 1 -2.22045e-16
    outer loop
      vertex 150 -1.66533e-15 3.33067e-15
      vertex 157.5 0 7.5
      vertex 165 -1.66533e-15 0
    endloop
  endfacet
  facet normal 0 1 -2.22045e-16
    outer loop
      vertex 165 -1.66533e-15 0
      vertex 157.5 0 7.5
      vertex 165 0 7.5
    endloop
  endfacet
  facet normal 0 1 -2.22045e-16
    outer loop
      vertex 165 -1.66533e-15 0
      vertex 165 0 7.5
      vertex 165 -1.84889e-31 7.5
    endloop
  endfacet
  facet normal 0 -1 0
    outer loop
      vertex 150 0 15
      vertex 150 0 0
      vertex 165 0 0
    endloop
  endfacet
  facet normal 0 -1 0
    outer loop
      vertex 157.5 0 7.5
      vertex 150 0 15
      vertex 165 0 0
    endloop
  endfacet
  facet normal 0 -1 0
    outer loop
      vertex 165 0 7.5
      vertex 157.5 0 7.5
      vertex 165 0 0
    endloop
  endfacet
  facet normal 0 -1 0
    outer loop
      vertex 157.5 0 7.5
      vertex 165 0 15
      vertex 150 0 15
    endloop
  endfacet
  facet normal 1 0 0
    outer loop
      vertex 165 1.83697e-15 15
      vertex 165 0 15
      vertex 165 1.66533e-15 15
    endloop
  endfacet
  facet normal 1 0 0
    outer loop
      vertex 165 4.36553e-30 7.5
      vertex 165 1.83697e-15 15
      vertex 165 1.66533e-15 15
    endloop
  endfacet
  facet normal -5.43852e-32 -1 2.44929e-16
    outer loop
      vertex 165 4.36553e-30 7.5
      vertex 165 -1.83697e-15 3.5023e-15
      vertex 165 1.83697e-15 15
    endloop
  endfacet
  facet normal -5.43852e-32 -1 2.44929e-16
    outer loop
      vertex 165 -6.53873e-31 7.5
      vertex 165 -1.83697e-15 3.5023e-15
      vertex 165 4.36553e-30 7.5
    endloop
  endfacet
  facet normal -5.43852e-32 -1 2.44929e-16
    outer loop
      vertex 165 -1.83697e-15 3.5023e-15
      vertex 175 -1.83697e-15 5.72275e-15
      vertex 165 1.83697e-15 15
    endloop
  endfacet
  facet normal -5.43852e-32 -1 2.44929e-16
    outer loop
      vertex 175 -1.83697e-15 5.72275e-15
      vertex 170 1.83697e-15 15
      vertex 165 1.83697e-15 15
    endloop
  endfacet
  facet normal -1 0 -2.22045e-16
    outer loop
      vertex 165 0 7.5
      vertex 165 7.5 7.5
      vertex 165 -1.84889e-31 7.5
    endloop
  endfacet
  facet normal -1 0 -2.22045e-16
    outer loop
      vertex 165 -1.84889e-31 7.5
      vertex 165 7.5 7.5
      vertex 165 -1.83697e-15 3.5023e-15
    endloop
  endfacet
  facet normal -1 0 -2.22045e-16
    outer loop
      vertex 165 -1.84889e-31 7.5
      vertex 165 -1.83697e-15 3.5023e-15
      vertex 165 -6.53873e-31 7.5
    endloop
  endfacet
  facet normal 1 0 0
    outer loop
      vertex 165 0 7.5
      vertex 165 0 0
      vertex 165 15 0
    endloop
  endfacet
  facet normal 1 0 0
    outer loop
      vertex 165 7.5 7.5
      vertex 165 0 7.5
      vertex 165 15 0
    endloop
  endfacet
  facet normal 1 0 0
    outer loop
      vertex 165 15 15
      vertex 165 7.5 7.5
      vertex 165 15 0
    endloop
  endfacet
  facet normal -1 0 0
    outer loop
      vertex 150 0 0
      vertex 150 0 15
      vertex 150 15 0
    endloop
  endfacet
  facet normal -1 0 0
    outer loop
      vertex 150 15 0
      vertex 150 0 15
      vertex 150 15 15
    endloop
  endfacet
  facet normal 0 0 1
    outer loop
      vertex 150 15 15
      vertex 150 0 15
      vertex 165 0 15
    endloop
  endfacet
  facet normal -0.707107 -0.707107 0
    outer loop
      vertex 150 15 25
      vertex 150 15 15
      vertex 165 0 15
    endloop
  endfacet
  facet normal -0.707107 -0.707107 0
    outer loop
      vertex 150 15 25
      vertex 165 0 15
      vertex 165 -9.18485e-16 15
    endloop
  endfacet
  facet normal -0.707107 -0.707107 0
    outer loop
      vertex 150 15 25
      vertex 165 -9.18485e-16 15
      vertex 165 -9.18485e-16 20
    endloop
  endfacet
  facet normal 1 -1.22465e-16 0
    outer loop
      vertex 165 -9.18485e-16 20
      vertex 165 -9.18485e-16 15
      vertex 165 0 15
    endloop
  endfacet
  facet normal 1 -1.22465e-16 0
    outer loop
      vertex 165 1.83697e-15 15
      vertex 165 -9.18485e-16 20
      vertex 165 0 15
    endloop
  endfacet
  facet normal 1 -1.22465e-16 0
    outer loop
      vertex 165 14.2992 15
      vertex 165 -9.18485e-16 20
      vertex 165 1.83697e-15 15
    endloop
  endfacet
  facet normal 1 -1.22465e-16 0
    outer loop
      vertex 165 15 15
      vertex 165 -9.18485e-16 20
      vertex 165 14.2992 15
    endloop
  endfacet
  facet normal 1 -1.22465e-16 0
    outer loop
      vertex 165 15 20
      vertex 165 -9.18485e-16 20
      vertex 165 15 15
    endloop
  endfacet
  facet normal 0 0 -1
    outer loop
      vertex 150 0 0
      vertex 150 15 0
      vertex 165 0 0
    endloop
  endfacet
  facet normal 0 0 -1
    outer loop
      vertex 165 0 0
      vertex 150 15 0
      vertex 165 15 0
    endloop
  endfacet
  facet normal -2.22045e-16 2.44929e-16 1
    outer loop
      vertex 165 14.2992 15
      vertex 170 1.83697e-15 15
      vertex 165 15 15
    endloop
  endfacet
  facet normal -2.22045e-16 2.44929e-16 1
    outer loop
      vertex 165 1.83697e-15 15
      vertex 170 1.83697e-15 15
      vertex 165 14.2992 15
    endloop
  endfacet
  facet normal -2.22045e-16 2.44929e-16 1
    outer loop
      vertex 170 1.83697e-15 15
      vertex 170 15 15
      vertex 165 15 15
    endloop
  endfacet
  facet normal 0.948683 7.74535e-17 0.316228
    outer loop
      vertex 170 15 15
      vertex 170 1.83697e-15 15
      vertex 175 -1.83697e-15 5.72275e-15
    endloop
  endfacet
  facet normal 1.57009e-16 0.707107 -0.707107
    outer loop
      vertex 165 15 15
      vertex 170 15 15
      vertex 175 -1.83697e-15 5.72275e-15
    endloop
  endfacet
  facet normal 1.57009e-16 0.707107 -0.707107
    outer loop
      vertex 165 7.5 7.5
      vertex 175 -1.83697e-15 5.72275e-15
      vertex 165 -1.83697e-15 3.5023e-15
    endloop
  endfacet
  facet normal 1.57009e-16 0.707107 -0.707107
    outer loop
      vertex 165 15 15
      vertex 175 -1.83697e-15 5.72275e-15
      vertex 165 7.5 7.5
    endloop
  endfacet
  facet normal 0 1 0
    outer loop
      vertex 150 15 0
      vertex 150 15 15
      vertex 165 15 0
    endloop
  endfacet
  facet normal 0 1 0
    outer loop
      vertex 165 15 0
      vertex 150 15 15
      vertex 157.5 15 15
    endloop
  endfacet
  facet normal 0 1 0
    outer loop
      vertex 165 15 0
      vertex 157.5 15 15
      vertex 165 15 15
    endloop
  endfacet
  facet normal 1.22465e-16 1 0
    outer loop
      vertex 150 15 15
      vertex 150 15 25
      vertex 157.5 15 15
    endloop
  endfacet
  facet normal 1.22465e-16 1 0
    outer loop
      vertex 157.5 15 15
      vertex 150 15 25
      vertex 165 15 20
    endloop
  endfacet
  facet normal 1.22465e-16 1 0
    outer loop
      vertex 157.5 15 15
      vertex 165 15 20
      vertex 165 15 15
    endloop
  endfacet
  facet normal 0.316228 -3.87267e-17 0.948683
    outer loop
      vertex 165 15 20
      vertex 150 15 25
      vertex 165 -9.18485e-16 20
    endloop
  endfacet
  facet normal -1 5.43852e-32 2.44929e-16
    outer loop
      vertex 180 -5 4.61253e-15
      vertex 180 -5 15
      vertex 180 -1.66533e-15 3.5023e-15
    endloop
  endfacet
  facet normal -1 5.43852e-32 2.44929e-16
    outer loop
      vertex 180 0 15
      vertex 180 -5 15
      vertex 180 1.66533e-15 15
    endloop
  endfacet
  facet normal -1 5.43852e-32 2.44929e-16
    outer loop
      vertex 180 -1.66533e-15 3.5023e-15
      vertex 180 -5 15
      vertex 180 0 15
    endloop
  endfacet
  facet normal -1 5.43852e-32 2.44929e-16
    outer loop
      vertex 180 4.07889e-31 7.5
      vertex 180 -1.66533e-15 3.5023e-15
      vertex 180 0 7.5
    endloop
  endfacet
  facet normal -1 5.43852e-32 2.44929e-16
    outer loop
      vertex 180 0 7.5
      vertex 180 -1.66533e-15 3.5023e-15
      vertex 180 0 15
    endloop
  endfacet
  facet normal -0.316228 -0.948683 2.88103e-16
    outer loop
      vertex 180 -5 15
      vertex 180 -5 4.61253e-15
      vertex 195 -10 2.04881e-15
    endloop
  endfacet
  facet normal -2.44929e-16 -2.22045e-16 -1
    outer loop
      vertex 180 -5 4.61253e-15
      vertex 180 -1.66533e-15 3.5023e-15
      vertex 195 -10 2.04881e-15
    endloop
  endfacet
  facet normal -2.44929e-16 -2.22045e-16 -1
    outer loop
      vertex 195 -10 2.04881e-15
      vertex 180 -1.66533e-15 3.5023e-15
      vertex 195 -1.66533e-15 -1.71636e-16
    endloop
  endfacet
  facet normal 0 1 -2.22045e-16
    outer loop
      vertex 180 -1.66533e-15 3.5023e-15
      vertex 180 0 7.5
      vertex 195 -1.66533e-15 -1.71636e-16
    endloop
  endfacet
  facet normal 0 1 -2.22045e-16
    outer loop
      vertex 180 -1.66533e-15 3.5023e-15
      vertex 180 4.07889e-31 7.5
      vertex 180 0 7.5
    endloop
  endfacet
  facet normal 0 1 -2.22045e-16
    outer loop
      vertex 187.5 0 7.5
      vertex 195 -1.66533e-15 -1.71636e-16
      vertex 180 0 7.5
    endloop
  endfacet
  facet normal -1 0 0
    outer loop
      vertex 180 0 0
      vertex 180 0 7.5
      vertex 180 15 0
    endloop
  endfacet
  facet normal -1 0 0
    outer loop
      vertex 180 15 0
      vertex 180 0 7.5
      vertex 180 4.07889e-31 7.5
    endloop
  endfacet
  facet normal -1 0 0
    outer loop
      vertex 180 4.07889e-31 7.5
      vertex 180 0 7.5
      vertex 180 0 15
    endloop
  endfacet
  facet normal -1 0 0
    outer loop
      vertex 180 4.07889e-31 7.5
      vertex 180 0 15
      vertex 180 15 0
    endloop
  endfacet
  facet normal -1 0 0
    outer loop
      vertex 180 15 0
      vertex 180 0 15
      vertex 180 1.66533e-15 15
    endloop
  endfacet
  facet normal -1 0 0
    outer loop
      vertex 180 15 0
      vertex 180 1.66533e-15 15
      vertex 180 3.33067e-15 15
    endloop
  endfacet
  facet normal -1 0 0
    outer loop
      vertex 180 15 0
      vertex 180 3.33067e-15 15
      vertex 180 15 15
    endloop
  endfacet
  facet normal -2.22045e-16 -1 0
    outer loop
      vertex 187.5 0 15
      vertex 180 1.66533e-15 20
      vertex 180 1.66533e-15 15
    endloop
  endfacet
  facet normal -2.22045e-16 -1 0
    outer loop
      vertex 195 -1.66533e-15 15
      vertex 180 1.66533e-15 20
      vertex 187.5 0 15
    endloop
  endfacet
  facet normal -2.22045e-16 -1 0
    outer loop
      vertex 195 -1.66533e-15 20
      vertex 180 1.66533e-15 20
      vertex 195 -1.66533e-15 15
    endloop
  endfacet
  facet normal 0.707107 1.57009e-16 0.707107
    outer loop
      vertex 180 1.66533e-15 15
      vertex 180 -5 15
      vertex 195 -10 2.04881e-15
    endloop
  endfacet
  facet normal 0.707107 1.57009e-16 0.707107
    outer loop
      vertex 180 0 15
      vertex 180 1.66533e-15 15
      vertex 195 -10 2.04881e-15
    endloop
  endfacet
  facet normal 0.707107 1.57009e-16 0.707107
    outer loop
      vertex 195 -1.66533e-15 -1.71636e-16
      vertex 180 0 15
      vertex 195 -10 2.04881e-15
    endloop
  endfacet
  facet normal 0.707107 1.57009e-16 0.707107
    outer loop
      vertex 187.5 0 7.5
      vertex 180 0 15
      vertex 195 -1.66533e-15 -1.71636e-16
    endloop
  endfacet
  facet normal 0 -1 0
    outer loop
      vertex 180 0 7.5
      vertex 180 0 0
      vertex 195 0 0
    endloop
  endfacet
  facet normal 0 -1 0
    outer loop
      vertex 187.5 0 7.5
      vertex 180 0 7.5
      vertex 195 0 0
    endloop
  endfacet
  facet normal 0 -1 0
    outer loop
      vertex 195 0 15
      vertex 187.5 0 7.5
      vertex 195 0 0
    endloop
  endfacet
  facet normal 0 -1 0
    outer loop
      vertex 187.5 0 15
      vertex 187.5 0 7.5
      vertex 195 0 15
    endloop
  endfacet
  facet normal 0 -1 0
    outer loop
      vertex 180 0 15
      vertex 187.5 0 7.5
      vertex 187.5 0 15
    endloop
  endfacet
  facet normal 0 0 -1
    outer loop
      vertex 180 0 0
      vertex 180 15 0
      vertex 195 0 0
    endloop
  endfacet
  facet normal 0 0 -1
    outer loop
      vertex 195 0 0
      vertex 180 15 0
      vertex 195 15 0
    endloop
  endfacet
  facet normal 0 1 0
    outer loop
      vertex 180 15 0
      vertex 180 15 15
      vertex 195 15 0
    endloop
  endfacet
  facet normal 0 1 0
    outer loop
      vertex 195 15 0
      vertex 180 15 15
      vertex 195 15 15
    endloop
  endfacet
  facet normal 0 1 0
    outer loop
      vertex 195 15 0
      vertex 195 15 15
      vertex 195 15 7.5
    endloop
  endfacet
  facet normal 0 0 1
    outer loop
      vertex 180 15 15
      vertex 180 3.33067e-15 15
      vertex 195 15 15
    endloop
  endfacet
  facet normal -0.707107 0.707107 0
    outer loop
      vertex 180 1.66533e-15 15
      vertex 180 1.66533e-15 20
      vertex 180 3.33067e-15 15
    endloop
  endfacet
  facet normal -0.707107 0.707107 0
    outer loop
      vertex 180 3.33067e-15 15
      vertex 180 1.66533e-15 20
      vertex 195 15 25
    endloop
  endfacet
  facet normal -0.707107 0.707107 0
    outer loop
      vertex 180 3.33067e-15 15
      vertex 195 15 25
      vertex 195 15 15
    endloop
  endfacet
  facet normal -7.02167e-17 -0.316228 0.948683
    outer loop
      vertex 195 15 25
      vertex 180 1.66533e-15 20
      vertex 195 -1.66533e-15 20
    endloop
  endfacet
  facet normal 1 -2.22045e-16 0
    outer loop
      vertex 195 -1.66533e-15 20
      vertex 195 -1.66533e-15 15
      vertex 195 0 15
    endloop
  endfacet
  facet normal 1 -2.22045e-16 0
    outer loop
      vertex 195 1.66533e-15 15
      vertex 195 -1.66533e-15 20
      vertex 195 0 15
    endloop
  endfacet
  facet normal 1 -2.22045e-16 0
    outer loop
      vertex 195 4.996e-15 15
      vertex 195 1.66533e-15 15
      vertex 195 0 15
    endloop
  endfacet
  facet normal 1 -2.22045e-16 0
    outer loop
      vertex 195 15 25
      vertex 195 -1.66533e-15 20
      vertex 195 15 15
    endloop
  endfacet
  facet normal 1 -2.22045e-16 0
    outer loop
      vertex 195 1.66533e-15 15
      vertex 195 15 15
      vertex 195 -1.66533e-15 20
    endloop
  endfacet
  facet normal 0 0 -1
    outer loop
      vertex 195 0 15
      vertex 195 -1.66533e-15 15
      vertex 187.5 0 15
    endloop
  endfacet
  facet normal 0 0 1
    outer loop
      vertex 187.5 0 15
      vertex 180 1.66533e-15 15
      vertex 180 0 15
    endloop
  endfacet
  facet normal 1 0 0
    outer loop
      vertex 195 0 15
      vertex 195 0 0
      vertex 195 15 0
    endloop
  endfacet
  facet normal 1 0 0
    outer loop
      vertex 195 7.5 7.5
      vertex 195 0 15
      vertex 195 15 0
    endloop
  endfacet
  facet normal 1 0 0
    outer loop
      vertex 195 15 7.5
      vertex 195 7.5 7.5
      vertex 195 15 0
    endloop
  endfacet
  facet normal 1 0 0
    outer loop
      vertex 195 7.5 7.5
      vertex 195 4.996e-15 15
      vertex 195 0 15
    endloop
  endfacet
  facet normal -1 0 -2.22045e-16
    outer loop
      vertex 195 15 7.5
      vertex 195 15 15
      vertex 195 15 0
    endloop
  endfacet
  facet normal -1 0 -2.22045e-16
    outer loop
      vertex 195 15 7.5
      vertex 195 15 0
      vertex 195 7.5 7.5
    endloop
  endfacet
  facet normal -2.22045e-16 2.22045e-16 1
    outer loop
      vertex 195 1.66533e-15 15
      vertex 205 1.66533e-15 15
      vertex 195 15 15
    endloop
  endfacet
  facet normal -2.22045e-16 2.22045e-16 1
    outer loop
      vertex 205 1.66533e-15 15
      vertex 200 15 15
      vertex 195 15 15
    endloop
  endfacet
  facet normal 1.57009e-16 -0.707107 -0.707107
    outer loop
      vertex 205 1.66533e-15 15
      vertex 195 1.66533e-15 15
      vertex 195 4.996e-15 15
    endloop
  endfacet
  facet normal 1.57009e-16 -0.707107 -0.707107
    outer loop
      vertex 195 7.5 7.5
      vertex 205 1.66533e-15 15
      vertex 195 4.996e-15 15
    endloop
  endfacet
  facet normal 1.57009e-16 -0.707107 -0.707107
    outer loop
      vertex 195 15 0
      vertex 205 1.66533e-15 15
      vertex 195 7.5 7.5
    endloop
  endfacet
  facet normal 1.57009e-16 -0.707107 -0.707107
    outer loop
      vertex 200 15 1.11022e-15
      vertex 205 1.66533e-15 15
      vertex 195 15 0
    endloop
  endfacet
  facet normal 4.93038e-32 1 -2.22045e-16
    outer loop
      vertex 195 15 15
      vertex 200 15 15
      vertex 195 15 0
    endloop
  endfacet
  facet normal 4.93038e-32 1 -2.22045e-16
    outer loop
      vertex 195 15 0
      vertex 200 15 15
      vertex 200 15 1.11022e-15
    endloop
  endfacet
  facet normal 0.948683 0.316228 1.40433e-16
    outer loop
      vertex 200 15 1.11022e-15
      vertex 200 15 15
      vertex 205 1.66533e-15 15
    endloop
  endfacet
  facet normal -1 5.43852e-32 2.44929e-16
    outer loop
      vertex 210 -5 4.61253e-15
      vertex 210 -5 15
      vertex 210 -1.66533e-15 3.5023e-15
    endloop
  endfacet
  facet normal -1 5.43852e-32 2.44929e-16
    outer loop
      vertex 210 0 15
      vertex 210 -5 15
      vertex 210 1.66533e-15 15
    endloop
  endfacet
  facet normal -1 5.43852e-32 2.44929e-16
    outer loop
      vertex 210 -1.66533e-15 3.5023e-15
      vertex 210 -5 15
      vertex 210 0 15
    endloop
  endfacet
  facet normal -1 5.43852e-32 2.44929e-16
    outer loop
      vertex 210 -1.66533e-15 3.5023e-15
      vertex 210 0 15
      vertex 210 0 7.5
    endloop
  endfacet
  facet normal -1 5.43852e-32 2.44929e-16
    outer loop
      vertex 210 -1.66533e-15 3.5023e-15
      vertex 210 0 7.5
      vertex 210 4.07889e-31 7.5
    endloop
  endfacet
  facet normal -0.316228 -0.948683 2.88103e-16
    outer loop
      vertex 210 -5 15
      vertex 210 -5 4.61253e-15
      vertex 225 -10 2.04881e-15
    endloop
  endfacet
  facet normal -2.44929e-16 -2.22045e-16 -1
    outer loop
      vertex 210 -5 4.61253e-15
      vertex 210 -1.66533e-15 3.5023e-15
      vertex 225 -10 2.04881e-15
    endloop
  endfacet
  facet normal -2.44929e-16 -2.22045e-16 -1
    outer loop
      vertex 225 -10 2.04881e-15
      vertex 210 -1.66533e-15 3.5023e-15
      vertex 225 -1.66533e-15 -1.71636e-16
    endloop
  endfacet
  facet normal 0 1 -2.22045e-16
    outer loop
      vertex 210 -1.66533e-15 3.5023e-15
      vertex 210 0 7.5
      vertex 225 -1.66533e-15 -1.71636e-16
    endloop
  endfacet
  facet normal 0 1 -2.22045e-16
    outer loop
      vertex 210 -1.66533e-15 3.5023e-15
      vertex 210 4.07889e-31 7.5
      vertex 210 0 7.5
    endloop
  endfacet
  facet normal 0 1 -2.22045e-16
    outer loop
      vertex 217.5 0 7.5
      vertex 225 -1.66533e-15 -1.71636e-16
      vertex 210 0 7.5
    endloop
  endfacet
  facet normal -1 0 0
    outer loop
      vertex 210 0 0
      vertex 210 0 7.5
      vertex 210 15 0
    endloop
  endfacet
  facet normal -1 0 0
    outer loop
      vertex 210 15 0
      vertex 210 0 7.5
      vertex 210 4.07889e-31 7.5
    endloop
  endfacet
  facet normal -1 0 0
    outer loop
      vertex 210 4.07889e-31 7.5
      vertex 210 0 7.5
      vertex 210 0 15
    endloop
  endfacet
  facet normal -1 0 0
    outer loop
      vertex 210 4.07889e-31 7.5
      vertex 210 0 15
      vertex 210 15 0
    endloop
  endfacet
  facet normal -1 0 0
    outer loop
      vertex 210 15 0
      vertex 210 0 15
      vertex 210 15 15
    endloop
  endfacet
  facet normal 0 0 1
    outer loop
      vertex 210 1.66533e-15 15
      vertex 210 15 15
      vertex 210 0 15
    endloop
  endfacet
  facet normal 0 0 1
    outer loop
      vertex 225 0 15
      vertex 210 15 15
      vertex 210 1.66533e-15 15
    endloop
  endfacet
  facet normal 0 0 1
    outer loop
      vertex 225 0 15
      vertex 210 1.66533e-15 15
      vertex 210 0 15
    endloop
  endfacet
  facet normal 0.707107 1.57009e-16 0.707107
    outer loop
      vertex 210 1.66533e-15 15
      vertex 210 -5 15
      vertex 225 -10 2.04881e-15
    endloop
  endfacet
  facet normal 0.707107 1.57009e-16 0.707107
    outer loop
      vertex 210 0 15
      vertex 210 1.66533e-15 15
      vertex 225 -10 2.04881e-15
    endloop
  endfacet
  facet normal 0.707107 1.57009e-16 0.707107
    outer loop
      vertex 225 -1.66533e-15 -1.71636e-16
      vertex 217.5 0 7.5
      vertex 225 -10 2.04881e-15
    endloop
  endfacet
  facet normal 0.707107 1.57009e-16 0.707107
    outer loop
      vertex 217.5 0 7.5
      vertex 210 0 15
      vertex 225 -10 2.04881e-15
    endloop
  endfacet
  facet normal 0 -1 0
    outer loop
      vertex 210 0 7.5
      vertex 210 0 0
      vertex 225 0 0
    endloop
  endfacet
  facet normal 0 -1 0
    outer loop
      vertex 217.5 0 7.5
      vertex 210 0 7.5
      vertex 225 0 0
    endloop
  endfacet
  facet normal 0 -1 0
    outer loop
      vertex 225 0 7.5
      vertex 217.5 0 7.5
      vertex 225 0 0
    endloop
  endfacet
  facet normal 0 -1 0
    outer loop
      vertex 210 0 15
      vertex 225 0 7.5
      vertex 225 0 15
    endloop
  endfacet
  facet normal 0 -1 0
    outer loop
      vertex 210 0 15
      vertex 217.5 0 7.5
      vertex 225 0 7.5
    endloop
  endfacet
  facet normal 0 0 -1
    outer loop
      vertex 210 0 0
      vertex 210 15 0
      vertex 225 0 0
    endloop
  endfacet
  facet normal 0 0 -1
    outer loop
      vertex 225 0 0
      vertex 210 15 0
      vertex 225 15 0
    endloop
  endfacet
  facet normal 0 1 0
    outer loop
      vertex 210 15 0
      vertex 210 15 15
      vertex 225 15 0
    endloop
  endfacet
  facet normal 0 1 0
    outer loop
      vertex 225 15 0
      vertex 210 15 15
      vertex 217.5 15 15
    endloop
  endfacet
  facet normal 0 1 0
    outer loop
      vertex 225 15 0
      vertex 217.5 15 15
      vertex 225 15 15
    endloop
  endfacet
  facet normal -0.707107 -0.707107 0
    outer loop
      vertex 210 15 25
      vertex 210 15 15
      vertex 225 0 15
    endloop
  endfacet
  facet normal -0.707107 -0.707107 0
    outer loop
      vertex 210 15 25
      vertex 225 0 15
      vertex 225 -9.18485e-16 15
    endloop
  endfacet
  facet normal -0.707107 -0.707107 0
    outer loop
      vertex 210 15 25
      vertex 225 -9.18485e-16 15
      vertex 225 -9.18485e-16 20
    endloop
  endfacet
  facet normal 1 -1.22465e-16 0
    outer loop
      vertex 225 -9.18485e-16 20
      vertex 225 -9.18485e-16 15
      vertex 225 0 15
    endloop
  endfacet
  facet normal 1 -1.22465e-16 0
    outer loop
      vertex 225 1.83697e-15 15
      vertex 225 -9.18485e-16 20
      vertex 225 0 15
    endloop
  endfacet
  facet normal 1 -1.22465e-16 0
    outer loop
      vertex 225 14.2992 15
      vertex 225 -9.18485e-16 20
      vertex 225 1.83697e-15 15
    endloop
  endfacet
  facet normal 1 -1.22465e-16 0
    outer loop
      vertex 225 15 15
      vertex 225 -9.18485e-16 20
      vertex 225 14.2992 15
    endloop
  endfacet
  facet normal 1 -1.22465e-16 0
    outer loop
      vertex 225 15 20
      vertex 225 -9.18485e-16 20
      vertex 225 15 15
    endloop
  endfacet
  facet normal 1 0 0
    outer loop
      vertex 225 0 15
      vertex 225 0 7.5
      vertex 225 1.83697e-15 15
    endloop
  endfacet
  facet normal -5.43852e-32 -1 2.44929e-16
    outer loop
      vertex 225 0 7.5
      vertex 225 -1.83697e-15 3.5023e-15
      vertex 225 1.83697e-15 15
    endloop
  endfacet
  facet normal -5.43852e-32 -1 2.44929e-16
    outer loop
      vertex 225 -1.83697e-15 3.5023e-15
      vertex 235 -1.83697e-15 5.72275e-15
      vertex 225 1.83697e-15 15
    endloop
  endfacet
  facet normal -5.43852e-32 -1 2.44929e-16
    outer loop
      vertex 235 -1.83697e-15 5.72275e-15
      vertex 230 1.83697e-15 15
      vertex 225 1.83697e-15 15
    endloop
  endfacet
  facet normal -1 0 -2.22045e-16
    outer loop
      vertex 225 -1.83697e-15 3.5023e-15
      vertex 225 0 7.5
      vertex 225 7.5 7.5
    endloop
  endfacet
  facet normal 1 0 0
    outer loop
      vertex 225 0 7.5
      vertex 225 0 0
      vertex 225 15 0
    endloop
  endfacet
  facet normal 1 0 0
    outer loop
      vertex 225 7.5 7.5
      vertex 225 0 7.5
      vertex 225 15 0
    endloop
  endfacet
  facet normal 1 0 0
    outer loop
      vertex 225 15 15
      vertex 225 7.5 7.5
      vertex 225 15 0
    endloop
  endfacet
  facet normal 1.57009e-16 0.707107 -0.707107
    outer loop
      vertex 225 15 15
      vertex 230 15 15
      vertex 235 -1.83697e-15 5.72275e-15
    endloop
  endfacet
  facet normal 1.57009e-16 0.707107 -0.707107
    outer loop
      vertex 225 7.5 7.5
      vertex 235 -1.83697e-15 5.72275e-15
      vertex 225 -1.83697e-15 3.5023e-15
    endloop
  endfacet
  facet normal 1.57009e-16 0.707107 -0.707107
    outer loop
      vertex 225 15 15
      vertex 235 -1.83697e-15 5.72275e-15
      vertex 225 7.5 7.5
    endloop
  endfacet
  facet normal -2.22045e-16 2.44929e-16 1
    outer loop
      vertex 225 14.2992 15
      vertex 230 1.83697e-15 15
      vertex 225 15 15
    endloop
  endfacet
  facet normal -2.22045e-16 2.44929e-16 1
    outer loop
      vertex 225 1.83697e-15 15
      vertex 230 1.83697e-15 15
      vertex 225 14.2992 15
    endloop
  endfacet
  facet normal -2.22045e-16 2.44929e-16 1
    outer loop
      vertex 230 1.83697e-15 15
      vertex 230 15 15
      vertex 225 15 15
    endloop
  endfacet
  facet normal 1.22465e-16 1 0
    outer loop
      vertex 210 15 15
      vertex 210 15 25
      vertex 217.5 15 15
    endloop
  endfacet
  facet normal 1.22465e-16 1 0
    outer loop
      vertex 217.5 15 15
      vertex 210 15 25
      vertex 225 15 20
    endloop
  endfacet
  facet normal 1.22465e-16 1 0
    outer loop
      vertex 217.5 15 15
      vertex 225 15 20
      vertex 225 15 15
    endloop
  endfacet
  facet normal 0.316228 -3.87267e-17 0.948683
    outer loop
      vertex 225 15 20
      vertex 210 15 25
      vertex 225 -9.18485e-16 20
    endloop
  endfacet
  facet normal 0.948683 7.74535e-17 0.316228
    outer loop
      vertex 230 15 15
      vertex 230 1.83697e-15 15
      vertex 235 -1.83697e-15 5.72275e-15
    endloop
  endfacet
endsolid OpenSCAD_Model
